<mxfile host="app.diagrams.net" modified="2021-08-03T12:42:25.245Z" agent="5.0 (Macintosh; Intel Mac OS X 10_15_7) AppleWebKit/537.36 (KHTML, like Gecko) Chrome/92.0.4515.107 Safari/537.36" etag="xWghZvK9-CmSQIf2Yq8O" version="14.9.3" type="github">
  <diagram id="pu0ehkvAefOfJ7fadGOy" name="Page-1">
    <mxGraphModel dx="946" dy="589" grid="1" gridSize="10" guides="1" tooltips="1" connect="1" arrows="1" fold="1" page="1" pageScale="1" pageWidth="827" pageHeight="1169" math="0" shadow="0">
      <root>
        <mxCell id="0" />
        <mxCell id="1" parent="0" />
        <mxCell id="efUtnxQAS-Ak4hT04nHo-1" value="浏览器" style="rounded=0;whiteSpace=wrap;html=1;" vertex="1" parent="1">
          <mxGeometry x="100" y="120" width="120" height="60" as="geometry" />
        </mxCell>
        <mxCell id="efUtnxQAS-Ak4hT04nHo-2" value="tomcat" style="rounded=0;whiteSpace=wrap;html=1;" vertex="1" parent="1">
          <mxGeometry x="510" y="120" width="120" height="60" as="geometry" />
        </mxCell>
        <mxCell id="efUtnxQAS-Ak4hT04nHo-3" value="" style="endArrow=classic;startArrow=classic;html=1;exitX=1.008;exitY=0.633;exitDx=0;exitDy=0;exitPerimeter=0;" edge="1" parent="1" source="efUtnxQAS-Ak4hT04nHo-1">
          <mxGeometry width="50" height="50" relative="1" as="geometry">
            <mxPoint x="390" y="330" as="sourcePoint" />
            <mxPoint x="510" y="158" as="targetPoint" />
            <Array as="points">
              <mxPoint x="330" y="160" />
            </Array>
          </mxGeometry>
        </mxCell>
        <mxCell id="efUtnxQAS-Ak4hT04nHo-4" value="socket连接" style="edgeLabel;html=1;align=center;verticalAlign=middle;resizable=0;points=[];fontSize=14;" vertex="1" connectable="0" parent="efUtnxQAS-Ak4hT04nHo-3">
          <mxGeometry x="-0.0451" y="-3" relative="1" as="geometry">
            <mxPoint y="-3" as="offset" />
          </mxGeometry>
        </mxCell>
        <mxCell id="efUtnxQAS-Ak4hT04nHo-6" value="" style="rounded=0;whiteSpace=wrap;html=1;fontSize=14;" vertex="1" parent="1">
          <mxGeometry x="100" y="300" width="170" height="290" as="geometry" />
        </mxCell>
        <mxCell id="efUtnxQAS-Ak4hT04nHo-7" value="浏览器" style="rounded=0;whiteSpace=wrap;html=1;fontSize=14;" vertex="1" parent="1">
          <mxGeometry x="125" y="320" width="120" height="60" as="geometry" />
        </mxCell>
        <mxCell id="efUtnxQAS-Ak4hT04nHo-8" value="" style="rounded=0;whiteSpace=wrap;html=1;fontSize=14;" vertex="1" parent="1">
          <mxGeometry x="510" y="280" width="180" height="310" as="geometry" />
        </mxCell>
        <mxCell id="efUtnxQAS-Ak4hT04nHo-9" value="tomcat" style="rounded=0;whiteSpace=wrap;html=1;" vertex="1" parent="1">
          <mxGeometry x="540" y="310" width="120" height="60" as="geometry" />
        </mxCell>
        <mxCell id="efUtnxQAS-Ak4hT04nHo-10" value="SendBuf" style="rounded=0;whiteSpace=wrap;html=1;fontSize=14;" vertex="1" parent="1">
          <mxGeometry x="125" y="440" width="120" height="60" as="geometry" />
        </mxCell>
        <mxCell id="efUtnxQAS-Ak4hT04nHo-11" value="ReadBuf" style="rounded=0;whiteSpace=wrap;html=1;fontSize=14;" vertex="1" parent="1">
          <mxGeometry x="540" y="440" width="120" height="60" as="geometry" />
        </mxCell>
        <mxCell id="efUtnxQAS-Ak4hT04nHo-13" value="" style="endArrow=classic;html=1;fontSize=14;" edge="1" parent="1" target="efUtnxQAS-Ak4hT04nHo-11">
          <mxGeometry width="50" height="50" relative="1" as="geometry">
            <mxPoint x="250" y="480" as="sourcePoint" />
            <mxPoint x="300" y="430" as="targetPoint" />
          </mxGeometry>
        </mxCell>
        <mxCell id="efUtnxQAS-Ak4hT04nHo-14" value="数据" style="edgeLabel;html=1;align=center;verticalAlign=middle;resizable=0;points=[];fontSize=14;" vertex="1" connectable="0" parent="efUtnxQAS-Ak4hT04nHo-13">
          <mxGeometry x="-0.0681" y="4" relative="1" as="geometry">
            <mxPoint as="offset" />
          </mxGeometry>
        </mxCell>
      </root>
    </mxGraphModel>
  </diagram>
</mxfile>
